<svg width="295" height="295" viewBox="0 0 295 295" fill="none" xmlns="http://www.w3.org/2000/svg">
<rect x="7.5" y="7.5" width="280" height="280" fill="#32A4D6" stroke="black" stroke-width="15"/>
<path d="M121.06 199L102.16 171.7H101.04H81.3V199H58.62V101H101.04C109.72 101 117.233 102.447 123.58 105.34C130.02 108.233 134.967 112.34 138.42 117.66C141.873 122.98 143.6 129.28 143.6 136.56C143.6 143.84 141.827 150.14 138.28 155.46C134.827 160.687 129.88 164.7 123.44 167.5L145.42 199H121.06ZM120.64 136.56C120.64 131.053 118.867 126.853 115.32 123.96C111.773 120.973 106.593 119.48 99.78 119.48H81.3V153.64H99.78C106.593 153.64 111.773 152.147 115.32 149.16C118.867 146.173 120.64 141.973 120.64 136.56ZM236.749 95.12V199H215.889V190.32C210.476 196.853 202.636 200.12 192.369 200.12C185.276 200.12 178.836 198.533 173.049 195.36C167.356 192.187 162.876 187.66 159.609 181.78C156.343 175.9 154.709 169.087 154.709 161.34C154.709 153.593 156.343 146.78 159.609 140.9C162.876 135.02 167.356 130.493 173.049 127.32C178.836 124.147 185.276 122.56 192.369 122.56C201.983 122.56 209.496 125.593 214.909 131.66V95.12H236.749ZM196.149 182.2C201.656 182.2 206.229 180.333 209.869 176.6C213.509 172.773 215.329 167.687 215.329 161.34C215.329 154.993 213.509 149.953 209.869 146.22C206.229 142.393 201.656 140.48 196.149 140.48C190.549 140.48 185.929 142.393 182.289 146.22C178.649 149.953 176.829 154.993 176.829 161.34C176.829 167.687 178.649 172.773 182.289 176.6C185.929 180.333 190.549 182.2 196.149 182.2Z" fill="black"/>
</svg>
